<svg xmlns="http://www.w3.org/2000/svg" xmlns:xlink="http://www.w3.org/1999/xlink" width="384" zoomAndPan="magnify" viewBox="0 0 288 215.999996" height="288" preserveAspectRatio="xMidYMid meet" version="1.0"><defs><g/><clipPath id="4d46b666f9"><rect x="0" width="288" y="0" height="46"/></clipPath><clipPath id="b6c6ebd180"><path d="M 54 6 L 266.6875 6 L 266.6875 162 L 54 162 Z M 54 6 " clip-rule="nonzero"/></clipPath></defs><g transform="matrix(1, 0, 0, 1, 0, 166)"><g clip-path="url(#4d46b666f9)"><g fill="#b8860b" fill-opacity="1"><g transform="translate(-0.192907, 37.599163)"><g><path d="M 16.8125 -29.359375 L 16.8125 -25.625 C 16.8125 -25.195312 16.613281 -24.984375 16.21875 -24.984375 L 6.859375 -24.984375 L 6.859375 -17.484375 L 14 -17.484375 C 14.40625 -17.484375 14.609375 -17.273438 14.609375 -16.859375 L 14.609375 -13.140625 C 14.609375 -12.722656 14.40625 -12.515625 14 -12.515625 L 6.859375 -12.515625 L 6.859375 -4.9375 L 16.21875 -4.9375 C 16.613281 -4.9375 16.8125 -4.738281 16.8125 -4.34375 L 16.8125 -0.59375 C 16.8125 -0.195312 16.613281 0 16.21875 0 L 2.4375 0 C 2.0625 0 1.875 -0.195312 1.875 -0.59375 L 1.875 -29.359375 C 1.875 -29.765625 2.0625 -29.96875 2.4375 -29.96875 L 16.21875 -29.96875 C 16.613281 -29.96875 16.8125 -29.765625 16.8125 -29.359375 Z M 16.8125 -29.359375 "/></g></g></g><g fill="#b8860b" fill-opacity="1"><g transform="translate(19.243783, 37.599163)"><g><path d="M 1.71875 -29.96875 L 15.5 -29.96875 C 15.90625 -29.96875 16.109375 -29.765625 16.109375 -29.359375 L 16.109375 -25.625 C 16.109375 -25.21875 15.90625 -25.015625 15.5 -25.015625 L 11.15625 -25.015625 L 11.15625 -0.59375 C 11.15625 -0.195312 10.957031 0 10.5625 0 L 6.671875 0 C 6.265625 0 6.0625 -0.195312 6.0625 -0.59375 L 6.0625 -25.015625 L 1.71875 -25.015625 C 1.320312 -25.015625 1.125 -25.21875 1.125 -25.625 L 1.125 -29.359375 C 1.125 -29.765625 1.320312 -29.96875 1.71875 -29.96875 Z M 1.71875 -29.96875 "/></g></g></g><g fill="#b8860b" fill-opacity="1"><g transform="translate(37.219931, 37.599163)"><g><path d="M 7.265625 -29.96875 L 11.453125 -29.96875 C 13.234375 -29.96875 14.578125 -29.507812 15.484375 -28.59375 C 16.398438 -27.6875 16.859375 -26.34375 16.859375 -24.5625 L 16.859375 -20.59375 C 16.859375 -20.195312 16.65625 -20 16.25 -20 L 12.359375 -20 C 11.960938 -20 11.765625 -20.195312 11.765625 -20.59375 L 11.765625 -23.515625 C 11.765625 -24.515625 11.265625 -25.015625 10.265625 -25.015625 L 8.46875 -25.015625 C 7.46875 -25.015625 6.96875 -24.515625 6.96875 -23.515625 L 6.96875 -18.359375 L 15.875 -15.4375 C 16.53125 -15.15625 16.859375 -14.691406 16.859375 -14.046875 L 16.859375 -5.390625 C 16.859375 -3.640625 16.398438 -2.300781 15.484375 -1.375 C 14.578125 -0.457031 13.234375 0 11.453125 0 L 7.265625 0 C 5.515625 0 4.175781 -0.457031 3.25 -1.375 C 2.332031 -2.300781 1.875 -3.640625 1.875 -5.390625 L 1.875 -9.328125 C 1.875 -9.722656 2.070312 -9.921875 2.46875 -9.921875 L 6.359375 -9.921875 C 6.765625 -9.921875 6.96875 -9.722656 6.96875 -9.328125 L 6.96875 -6.4375 C 6.96875 -5.4375 7.46875 -4.9375 8.46875 -4.9375 L 10.265625 -4.9375 C 11.265625 -4.9375 11.765625 -5.4375 11.765625 -6.4375 L 11.765625 -11.421875 L 2.890625 -14.34375 C 2.210938 -14.570312 1.875 -15.035156 1.875 -15.734375 L 1.875 -24.5625 C 1.875 -26.34375 2.332031 -27.6875 3.25 -28.59375 C 4.175781 -29.507812 5.515625 -29.96875 7.265625 -29.96875 Z M 7.265625 -29.96875 "/></g></g></g><g fill="#b8860b" fill-opacity="1"><g transform="translate(56.694073, 37.599163)"><g/></g></g><g fill="#b8860b" fill-opacity="1"><g transform="translate(66.805717, 37.599163)"><g><path d="M 11.765625 -6.4375 L 11.765625 -29.359375 C 11.765625 -29.765625 11.960938 -29.96875 12.359375 -29.96875 L 16.25 -29.96875 C 16.65625 -29.96875 16.859375 -29.765625 16.859375 -29.359375 L 16.859375 -5.390625 C 16.859375 -3.640625 16.394531 -2.300781 15.46875 -1.375 C 14.539062 -0.457031 13.203125 0 11.453125 0 L 7.265625 0 C 5.515625 0 4.175781 -0.457031 3.25 -1.375 C 2.332031 -2.300781 1.875 -3.640625 1.875 -5.390625 L 1.875 -9.28125 C 1.875 -9.6875 2.070312 -9.890625 2.46875 -9.890625 L 6.21875 -9.890625 C 6.613281 -9.890625 6.8125 -9.6875 6.8125 -9.28125 L 6.8125 -6.4375 C 6.8125 -5.4375 7.3125 -4.9375 8.3125 -4.9375 L 10.265625 -4.9375 C 11.265625 -4.9375 11.765625 -5.4375 11.765625 -6.4375 Z M 11.765625 -6.4375 "/></g></g></g><g fill="#b8860b" fill-opacity="1"><g transform="translate(86.279859, 37.599163)"><g><path d="M 16.8125 -29.359375 L 16.8125 -25.625 C 16.8125 -25.195312 16.613281 -24.984375 16.21875 -24.984375 L 6.859375 -24.984375 L 6.859375 -17.484375 L 14 -17.484375 C 14.40625 -17.484375 14.609375 -17.273438 14.609375 -16.859375 L 14.609375 -13.140625 C 14.609375 -12.722656 14.40625 -12.515625 14 -12.515625 L 6.859375 -12.515625 L 6.859375 -4.9375 L 16.21875 -4.9375 C 16.613281 -4.9375 16.8125 -4.738281 16.8125 -4.34375 L 16.8125 -0.59375 C 16.8125 -0.195312 16.613281 0 16.21875 0 L 2.4375 0 C 2.0625 0 1.875 -0.195312 1.875 -0.59375 L 1.875 -29.359375 C 1.875 -29.765625 2.0625 -29.96875 2.4375 -29.96875 L 16.21875 -29.96875 C 16.613281 -29.96875 16.8125 -29.765625 16.8125 -29.359375 Z M 16.8125 -29.359375 "/></g></g></g><g fill="#b8860b" fill-opacity="1"><g transform="translate(105.716549, 37.599163)"><g><path d="M 19.921875 0 L 15.953125 0 C 15.628906 0 15.429688 -0.175781 15.359375 -0.53125 L 14.3125 -6 L 7.640625 -6 L 6.625 -0.53125 C 6.550781 -0.175781 6.351562 0 6.03125 0 L 2.015625 0 C 1.566406 0 1.40625 -0.210938 1.53125 -0.640625 L 7.75 -29.4375 C 7.820312 -29.789062 8.035156 -29.96875 8.390625 -29.96875 L 13.59375 -29.96875 C 13.945312 -29.96875 14.160156 -29.789062 14.234375 -29.4375 L 20.453125 -0.640625 C 20.523438 -0.210938 20.347656 0 19.921875 0 Z M 13.375 -10.34375 L 10.96875 -23.40625 L 8.578125 -10.34375 Z M 13.375 -10.34375 "/></g></g></g><g fill="#b8860b" fill-opacity="1"><g transform="translate(128.411394, 37.599163)"><g><path d="M 13.375 -29.96875 L 17.265625 -29.96875 C 17.660156 -29.96875 17.859375 -29.765625 17.859375 -29.359375 L 17.859375 -0.59375 C 17.859375 -0.195312 17.660156 0 17.265625 0 L 13.5625 0 C 13.207031 0 12.984375 -0.160156 12.890625 -0.484375 L 7.15625 -16.484375 L 6.96875 -16.484375 L 6.96875 -0.59375 C 6.96875 -0.195312 6.765625 0 6.359375 0 L 2.46875 0 C 2.070312 0 1.875 -0.195312 1.875 -0.59375 L 1.875 -29.359375 C 1.875 -29.765625 2.070312 -29.96875 2.46875 -29.96875 L 6.1875 -29.96875 C 6.53125 -29.96875 6.753906 -29.800781 6.859375 -29.46875 L 12.546875 -13.5625 L 12.765625 -13.5625 L 12.765625 -29.359375 C 12.765625 -29.765625 12.96875 -29.96875 13.375 -29.96875 Z M 13.375 -29.96875 "/></g></g></g><g fill="#b8860b" fill-opacity="1"><g transform="translate(148.896687, 37.599163)"><g/></g></g><g fill="#b8860b" fill-opacity="1"><g transform="translate(159.00833, 37.599163)"><g><path d="M 11.765625 -17.453125 L 11.765625 -29.359375 C 11.765625 -29.765625 11.960938 -29.96875 12.359375 -29.96875 L 16.21875 -29.96875 C 16.644531 -29.96875 16.859375 -29.765625 16.859375 -29.359375 L 16.859375 -0.59375 C 16.859375 -0.195312 16.644531 0 16.21875 0 L 12.359375 0 C 11.960938 0 11.765625 -0.195312 11.765625 -0.59375 L 11.765625 -12.515625 L 6.96875 -12.515625 L 6.96875 -0.59375 C 6.96875 -0.195312 6.765625 0 6.359375 0 L 2.515625 0 C 2.085938 0 1.875 -0.195312 1.875 -0.59375 L 1.875 -29.359375 C 1.875 -29.765625 2.085938 -29.96875 2.515625 -29.96875 L 6.359375 -29.96875 C 6.765625 -29.96875 6.96875 -29.765625 6.96875 -29.359375 L 6.96875 -17.453125 Z M 11.765625 -17.453125 "/></g></g></g><g fill="#b8860b" fill-opacity="1"><g transform="translate(178.482472, 37.599163)"><g><path d="M 19.921875 0 L 15.953125 0 C 15.628906 0 15.429688 -0.175781 15.359375 -0.53125 L 14.3125 -6 L 7.640625 -6 L 6.625 -0.53125 C 6.550781 -0.175781 6.351562 0 6.03125 0 L 2.015625 0 C 1.566406 0 1.40625 -0.210938 1.53125 -0.640625 L 7.75 -29.4375 C 7.820312 -29.789062 8.035156 -29.96875 8.390625 -29.96875 L 13.59375 -29.96875 C 13.945312 -29.96875 14.160156 -29.789062 14.234375 -29.4375 L 20.453125 -0.640625 C 20.523438 -0.210938 20.347656 0 19.921875 0 Z M 13.375 -10.34375 L 10.96875 -23.40625 L 8.578125 -10.34375 Z M 13.375 -10.34375 "/></g></g></g><g fill="#b8860b" fill-opacity="1"><g transform="translate(201.177317, 37.599163)"><g><path d="M 16.890625 -24.5625 L 16.890625 -17.671875 C 16.890625 -16.972656 16.664062 -16.382812 16.21875 -15.90625 C 15.769531 -15.4375 15.207031 -15.140625 14.53125 -15.015625 L 14.53125 -14.9375 C 15.207031 -14.84375 15.769531 -14.550781 16.21875 -14.0625 C 16.664062 -13.570312 16.890625 -12.976562 16.890625 -12.28125 L 16.890625 -5.390625 C 16.890625 -3.640625 16.425781 -2.300781 15.5 -1.375 C 14.582031 -0.457031 13.234375 0 11.453125 0 L 2.46875 0 C 2.070312 0 1.875 -0.195312 1.875 -0.59375 L 1.875 -29.359375 C 1.875 -29.765625 2.070312 -29.96875 2.46875 -29.96875 L 11.453125 -29.96875 C 13.234375 -29.96875 14.582031 -29.507812 15.5 -28.59375 C 16.425781 -27.6875 16.890625 -26.34375 16.890625 -24.5625 Z M 11.90625 -18.90625 L 11.90625 -23.515625 C 11.90625 -24.515625 11.40625 -25.015625 10.40625 -25.015625 L 7 -25.015625 L 7 -17.453125 L 10.40625 -17.453125 C 11.40625 -17.453125 11.90625 -17.9375 11.90625 -18.90625 Z M 11.90625 -6.4375 L 11.90625 -11.015625 C 11.90625 -12.015625 11.40625 -12.515625 10.40625 -12.515625 L 7 -12.515625 L 7 -4.9375 L 10.40625 -4.9375 C 11.40625 -4.9375 11.90625 -5.4375 11.90625 -6.4375 Z M 11.90625 -6.4375 "/></g></g></g><g fill="#b8860b" fill-opacity="1"><g transform="translate(220.6889, 37.599163)"><g><path d="M 2.46875 -29.96875 L 6.359375 -29.96875 C 6.765625 -29.96875 6.96875 -29.765625 6.96875 -29.359375 L 6.96875 -0.59375 C 6.96875 -0.195312 6.765625 0 6.359375 0 L 2.46875 0 C 2.070312 0 1.875 -0.195312 1.875 -0.59375 L 1.875 -29.359375 C 1.875 -29.765625 2.070312 -29.96875 2.46875 -29.96875 Z M 2.46875 -29.96875 "/></g></g></g><g fill="#b8860b" fill-opacity="1"><g transform="translate(230.276258, 37.599163)"><g><path d="M 1.71875 -29.96875 L 15.5 -29.96875 C 15.90625 -29.96875 16.109375 -29.765625 16.109375 -29.359375 L 16.109375 -25.625 C 16.109375 -25.21875 15.90625 -25.015625 15.5 -25.015625 L 11.15625 -25.015625 L 11.15625 -0.59375 C 11.15625 -0.195312 10.957031 0 10.5625 0 L 6.671875 0 C 6.265625 0 6.0625 -0.195312 6.0625 -0.59375 L 6.0625 -25.015625 L 1.71875 -25.015625 C 1.320312 -25.015625 1.125 -25.21875 1.125 -25.625 L 1.125 -29.359375 C 1.125 -29.765625 1.320312 -29.96875 1.71875 -29.96875 Z M 1.71875 -29.96875 "/></g></g></g><g fill="#b8860b" fill-opacity="1"><g transform="translate(248.252395, 37.599163)"><g><path d="M 19.921875 0 L 15.953125 0 C 15.628906 0 15.429688 -0.175781 15.359375 -0.53125 L 14.3125 -6 L 7.640625 -6 L 6.625 -0.53125 C 6.550781 -0.175781 6.351562 0 6.03125 0 L 2.015625 0 C 1.566406 0 1.40625 -0.210938 1.53125 -0.640625 L 7.75 -29.4375 C 7.820312 -29.789062 8.035156 -29.96875 8.390625 -29.96875 L 13.59375 -29.96875 C 13.945312 -29.96875 14.160156 -29.789062 14.234375 -29.4375 L 20.453125 -0.640625 C 20.523438 -0.210938 20.347656 0 19.921875 0 Z M 13.375 -10.34375 L 10.96875 -23.40625 L 8.578125 -10.34375 Z M 13.375 -10.34375 "/></g></g></g><g fill="#b8860b" fill-opacity="1"><g transform="translate(270.947251, 37.599163)"><g><path d="M 1.71875 -29.96875 L 15.5 -29.96875 C 15.90625 -29.96875 16.109375 -29.765625 16.109375 -29.359375 L 16.109375 -25.625 C 16.109375 -25.21875 15.90625 -25.015625 15.5 -25.015625 L 11.15625 -25.015625 L 11.15625 -0.59375 C 11.15625 -0.195312 10.957031 0 10.5625 0 L 6.671875 0 C 6.265625 0 6.0625 -0.195312 6.0625 -0.59375 L 6.0625 -25.015625 L 1.71875 -25.015625 C 1.320312 -25.015625 1.125 -25.21875 1.125 -25.625 L 1.125 -29.359375 C 1.125 -29.765625 1.320312 -29.96875 1.71875 -29.96875 Z M 1.71875 -29.96875 "/></g></g></g></g></g><g clip-path="url(#b6c6ebd180)"><path fill="#505d3f" d="M 124.429688 130.613281 C 119.773438 128.558594 121.007812 126.160156 121.898438 124.242188 C 126.691406 125.542969 128.542969 128.007812 124.5 130.679688 Z M 123.472656 113.421875 C 129.089844 113.351562 127.375 113.625 124.570312 114.105469 Z M 142.445312 87.121094 C 142.238281 86.640625 144.019531 86.023438 144.566406 85.40625 C 145.730469 85.957031 148.0625 86.230469 151.964844 86.230469 C 156.691406 86.230469 151.691406 87.050781 151.964844 89.105469 C 150.390625 88.902344 146.621094 88.558594 142.445312 87.121094 Z M 140.117188 76.710938 C 137.648438 75.066406 136.761719 76.160156 142.445312 75.75 L 143.335938 75.683594 C 134.429688 79.039062 153.882812 77.1875 156.757812 78.492188 C 151.894531 79.105469 144.566406 81.847656 143.675781 83.902344 C 142.445312 82.257812 140.871094 79.242188 140.390625 78.902344 C 137.238281 76.777344 141.898438 77.875 140.117188 76.710938 Z M 152.101562 121.707031 C 150.183594 118.625 142.648438 119.722656 150.183594 117.53125 C 156.074219 120.203125 157.238281 124.789062 148.746094 129.175781 C 149.089844 127.804688 150.320312 126.570312 149.226562 125.816406 C 146.007812 123.761719 152.921875 123.007812 152.101562 121.707031 Z M 120.664062 119.789062 C 120.664062 118.96875 121.828125 118.285156 123.0625 117.667969 L 125.800781 117.804688 C 125.183594 118.421875 122.992188 119.105469 120.664062 119.789062 Z M 122.445312 113.011719 C 118.609375 111.503906 114.84375 111.914062 126.144531 108.832031 L 127.238281 109.3125 C 127.238281 109.3125 122.992188 111.914062 122.445312 113.011719 Z M 124.636719 105.75 C 127.308594 105.75 125.664062 106.023438 124.910156 106.777344 C 123.402344 106.707031 122.171875 106.367188 121.144531 105.613281 C 122.101562 105.679688 123.199219 105.75 124.636719 105.75 Z M 144.429688 105.820312 C 147.992188 106.023438 152.308594 105.957031 153.539062 106.160156 C 152.511719 107.257812 148.953125 108.488281 145.390625 109.789062 C 144.773438 109.585938 144.5 109.378906 145.390625 109.105469 C 151.621094 107.324219 146.621094 106.296875 144.429688 105.820312 Z M 147.375 96.847656 C 141.210938 93.628906 144.566406 94.996094 148.199219 93.96875 C 154.363281 92.324219 140.59375 91.777344 145.800781 90.683594 L 151.964844 89.449219 C 152.308594 90.132812 153.265625 91.023438 155.457031 91.984375 C 155.457031 92.050781 145.9375 98.96875 149.429688 98.902344 C 163.609375 98.558594 148.609375 100.132812 144.773438 101.433594 L 144.15625 101.503906 C 143.199219 101.023438 147.855469 99.792969 145.800781 98.625 C 142.992188 97.050781 147.582031 97.941406 147.375 96.847656 Z M 120.117188 100.679688 C 123.0625 100.75 127.035156 100.679688 128.0625 101.023438 C 125.320312 101.296875 121.488281 102.394531 119.707031 103.488281 L 119.5 102.875 L 119.292969 103.285156 C 119.363281 102.597656 119.226562 102.738281 119.707031 102.121094 C 120.183594 101.640625 120.253906 101.09375 120.117188 100.679688 Z M 116.488281 97.738281 C 132.511719 93.148438 95.734375 92.394531 126.828125 92.324219 C 128.128906 93.078125 129.429688 93.421875 129.429688 94.996094 C 129.429688 96.570312 118.542969 99.378906 118.542969 99.378906 C 116.691406 98.625 114.363281 98.351562 116.488281 97.738281 Z M 110.9375 63.21875 C 110.871094 63.21875 110.871094 63.21875 110.9375 63.21875 Z M 168.195312 152.667969 C 168.128906 153.554688 168.058594 154.445312 167.992188 155.269531 C 164.636719 154.925781 161.554688 154.515625 158.609375 154.035156 C 153.609375 153.214844 162.71875 153.96875 168.195312 152.667969 Z M 138.953125 150.679688 C 138.265625 141.980469 138.953125 131.777344 145.046875 131.777344 L 159.292969 131.84375 C 167.101562 131.84375 168.746094 141.640625 168.265625 151.226562 C 163.265625 151.023438 152.238281 150.75 138.953125 150.679688 Z M 136.484375 62.601562 L 135.390625 62.601562 C 135.320312 65.136719 131.625 66.710938 132.101562 69.722656 C 132.511719 72.328125 130.117188 73.492188 131.144531 74.449219 C 132.308594 75.546875 125.046875 76.160156 129.292969 78.558594 C 131.964844 80.066406 123.199219 82.050781 122.375 82.394531 C 113.882812 85.957031 131.761719 84.105469 125.871094 86.09375 C 121.691406 87.460938 127.71875 88.078125 127.71875 88.148438 C 124.707031 90.203125 126.210938 91.710938 126.28125 92.121094 C 120.183594 91.09375 111.351562 87.667969 115.460938 87.738281 C 115.253906 87.394531 115.183594 87.394531 114.773438 87.1875 C 113.40625 86.574219 119.910156 84.722656 117.101562 83.148438 C 113.0625 80.886719 119.433594 82.121094 119.15625 80.546875 C 110.527344 76.023438 115.183594 77.875 120.390625 76.574219 C 129.019531 74.3125 109.707031 73.492188 117.101562 71.914062 C 134.636719 68.285156 124.980469 71.300781 112.238281 66.914062 C 111.828125 66.023438 116.554688 64.722656 115.046875 63.695312 L 114.019531 62.667969 C 113.335938 61.984375 111.210938 60.886719 110.253906 60.613281 C 110.117188 60.410156 117.035156 59.039062 116.351562 58.558594 C 116.210938 58.421875 115.9375 58.285156 115.664062 58.082031 L 111.144531 58.082031 C 110.324219 56.710938 109.636719 55.613281 109.296875 55.410156 C 104.980469 52.53125 111.488281 54.039062 109.089844 52.394531 C 105.664062 50.066406 104.433594 51.574219 112.308594 51.027344 C 123.0625 50.273438 98.199219 49.3125 107.378906 46.503906 C 114.433594 44.3125 100.9375 43.285156 107.789062 41.847656 C 115.253906 40.339844 107.652344 39.863281 105.460938 39.246094 C 104.980469 39.109375 103.132812 28.082031 103.132812 27.464844 C 102.992188 20 103.269531 32.53125 102.445312 32.53125 C 102.445312 36.164062 97.171875 38.355469 97.855469 42.53125 C 98.472656 46.230469 95.050781 47.738281 96.554688 49.175781 C 98.132812 50.683594 88.0625 51.574219 93.953125 55 C 95.664062 55.957031 93.953125 57.121094 91.488281 58.082031 L 90.390625 58.082031 C 98.472656 61.164062 88.199219 59.246094 90.253906 60.613281 C 96.28125 64.585938 92.996094 62.667969 90.1875 64.246094 C 90.871094 64.585938 90.664062 64.996094 89.226562 65.476562 C 83.40625 67.464844 91.828125 68.285156 91.761719 68.355469 C 87.515625 71.230469 89.707031 73.355469 89.773438 73.902344 C 91.898438 75.132812 94.089844 75.613281 94.089844 78.011719 C 94.089844 79.792969 83.746094 82.804688 82.582031 83.078125 C 65.804688 87.324219 89.160156 85.269531 92.308594 86.503906 C 84.363281 87.324219 69.84375 93.078125 87.515625 93.078125 C 94.023438 93.078125 81.898438 94.449219 91.144531 98.011719 C 91.144531 98.011719 81.625 103.902344 85.117188 103.832031 C 99.296875 103.558594 84.296875 104.859375 80.460938 105.957031 C 64.433594 110.476562 86.007812 109.515625 89.160156 109.929688 C 86.214844 112.597656 62.242188 116.503906 77.171875 117.804688 C 90.664062 118.96875 97.378906 125.476562 80.1875 131.023438 C 83.335938 130.0625 89.226562 130.75 95.1875 131.367188 C 103.0625 131.433594 102.992188 143.007812 101.761719 152.460938 L 105.664062 152.734375 C 105.460938 138.96875 114.773438 130.339844 129.292969 131.367188 C 136.144531 131.84375 137.101562 141.570312 136.417969 150.613281 C 126.964844 150.679688 114.636719 151.296875 109.773438 150.40625 C 104.910156 149.445312 126.761719 153.554688 131.898438 153.554688 C 113.609375 153.554688 95.324219 152.527344 78.199219 152.460938 L 82.242188 152.527344 C 77.722656 154.035156 33.476562 152.871094 67.515625 154.789062 C 77.105469 155.335938 127.925781 157.734375 125.527344 158.007812 C 85.871094 161.707031 69.84375 161.636719 134.089844 160.40625 C 137.855469 160.335938 142.71875 160.199219 148.402344 159.996094 C 182.511719 158.96875 245.179688 156.433594 268.605469 156.433594 C 243.949219 156.433594 201.140625 158.214844 171.347656 155.542969 C 171.210938 154.308594 171.140625 152.941406 171.003906 151.5 L 171.074219 151.433594 L 171.003906 151.433594 C 170.527344 142.734375 171.003906 131.777344 175.320312 131.707031 C 179.839844 130.75 187.785156 133.285156 190.730469 130.953125 C 190.183594 130.886719 189.636719 130.75 189.292969 130.613281 C 181.347656 126.707031 189.292969 121.707031 186.484375 119.515625 C 181.964844 116.023438 191.621094 114.789062 190.523438 112.667969 C 187.511719 106.984375 174.910156 109.929688 192.03125 104.378906 C 197.167969 102.667969 203.195312 103.011719 196.074219 102.597656 C 190.25 102.257812 185.730469 103.832031 184.085938 97.941406 L 183.882812 98.421875 C 183.949219 97.667969 183.8125 97.804688 184.292969 97.050781 C 187.03125 93.148438 177.445312 93.011719 181.074219 91.777344 C 197.441406 86.160156 158.539062 85.40625 193.746094 85.40625 C 188.195312 85.40625 175.320312 79.859375 180.183594 79.929688 C 179.976562 79.519531 179.910156 79.519531 179.5 79.3125 C 178.128906 78.558594 184.636719 76.4375 181.828125 74.585938 C 177.785156 71.914062 184.15625 73.421875 183.882812 71.503906 C 175.25 66.164062 179.910156 68.421875 185.046875 66.777344 C 191.347656 64.859375 182.785156 63.765625 180.527344 62.667969 C 180.457031 61.164062 183.128906 60.957031 185.457031 59.65625 C 187.101562 58.765625 176.074219 59.109375 177.921875 58.148438 L 180.59375 56.777344 C 179.359375 56.4375 178.128906 55.957031 176.828125 55.410156 C 176.417969 54.382812 181.140625 52.804688 179.703125 51.574219 C 177.921875 50.136719 174.839844 42.53125 173.882812 41.78125 C 169.566406 38.355469 176.074219 40.136719 173.675781 38.21875 C 170.25 35.476562 169.019531 37.257812 176.894531 36.644531 C 187.648438 35.753906 162.785156 34.589844 171.964844 31.300781 C 179.019531 28.765625 165.527344 27.464844 172.375 25.820312 C 179.839844 24.039062 172.238281 23.492188 170.046875 22.808594 C 169.566406 22.671875 167.71875 9.65625 167.71875 8.835938 C 167.582031 0 167.855469 14.792969 167.03125 14.792969 C 167.03125 19.039062 161.757812 21.710938 162.445312 26.644531 C 163.058594 30.957031 159.636719 32.808594 161.144531 34.519531 C 162.71875 36.300781 152.648438 37.328125 158.539062 41.367188 C 162.238281 43.902344 149.980469 47.121094 148.882812 47.667969 C 136.964844 53.558594 161.964844 50.546875 153.746094 53.832031 C 149.703125 55.410156 152.511719 56.4375 154.566406 56.914062 C 154.839844 56.710938 154.910156 56.710938 154.910156 56.984375 C 155.664062 57.121094 156.28125 57.257812 156.28125 57.257812 L 155.183594 58.285156 L 151.828125 58.285156 C 153.609375 58.96875 154.636719 59.3125 151.144531 59.722656 C 144.089844 60.613281 152.445312 60.410156 153.949219 62.804688 C 154.089844 63.285156 154.292969 63.628906 154.292969 63.765625 C 156.347656 65.273438 158.609375 65.75 158.609375 68.628906 C 158.609375 71.160156 144.429688 75.476562 144.363281 75.476562 C 143.199219 74.929688 134.019531 74.175781 139.019531 72.667969 C 144.089844 71.160156 134.429688 70.339844 139.292969 69.382812 C 144.636719 68.285156 139.15625 67.941406 137.648438 67.53125 C 137.375 67.328125 136.898438 64.859375 136.484375 62.601562 Z M 136.484375 62.601562 " fill-opacity="1" fill-rule="evenodd"/></g></svg>